<?xml version="1.0" encoding="utf-8"?>
<!-- Generator: Adobe Illustrator 19.0.1, SVG Export Plug-In . SVG Version: 6.00 Build 0)  -->
<svg version="1.1" id="Layer_1" xmlns="http://www.w3.org/2000/svg" xmlns:xlink="http://www.w3.org/1999/xlink" x="0px" y="0px"
	 viewBox="0 0 800 800" style="enable-background:new 0 0 800 800;" xml:space="preserve">
<style type="text/css">
	.st0{fill:#FFFFFF;}
	.st1{fill:#0084FF;}
</style>
<g>
	<g id="XMLID_1_">
		<g>
			<path class="st0" d="M514.6,483.8L385.1,613.3V440l-72.4,73.1l-26.7-25.9l89.5-89.9l-88.4-88.7l25.5-26.7l72.4,72.8V182.5
				l129.1,126.8L427,396.2L514.6,483.8z M463.6,310.1L419,264.8v89.9L463.6,310.1z M463.6,482.3L419,436.9v89.9L463.6,482.3z"/>
			<path class="st1" d="M748.3,256c18.9,45.7,28.4,93.7,28.4,144s-9.5,98.3-28.4,144c-18.9,45.7-46.3,86.5-82.1,122.3
				c-35.8,35.8-76.5,63.2-122.3,82.1c-45.7,18.9-93.7,28.4-144,28.4s-98.3-9.5-144-28.4c-45.7-18.9-86.5-46.3-122.3-82.1
				C98,630.4,70.6,589.7,51.7,544c-18.9-45.7-28.4-93.7-28.4-144s9.5-98.3,28.4-144c18.9-45.7,46.3-86.5,82.1-122.3
				S210.3,70.6,256,51.7c45.7-18.9,93.7-28.4,144-28.4s98.3,9.5,144,28.4c45.7,18.9,86.5,46.3,122.3,82.1
				C702,169.6,729.4,210.3,748.3,256z M385.1,613.3l129.5-129.5L427,396.2l87.2-86.8L385.1,182.5v172.1l-72.4-72.8l-25.5,26.7
				l88.4,88.7l-89.5,89.9l26.7,25.9l72.4-73.1V613.3z"/>
			<polygon class="st1" points="419,264.8 463.6,310.1 419,354.7 			"/>
			<polygon class="st1" points="419,436.9 463.6,482.3 419,526.8 			"/>
		</g>
		<g>
		</g>
	</g>
</g>
</svg>
